<svg t="1617717537913" class="icon" viewBox="0 0 1024 1024" version="1.1" xmlns="http://www.w3.org/2000/svg" p-id="9814" width="200" height="200"><path d="M864 979.2H160c-57.6 0-102.4-44.8-102.4-102.4V377.6c0-57.6 44.8-102.4 102.4-102.4h704c57.6 0 102.4 44.8 102.4 102.4v492.8c6.4 57.6-44.8 108.8-102.4 108.8z m-704-640c-25.6 0-38.4 19.2-38.4 38.4v492.8c0 25.6 19.2 38.4 38.4 38.4h704c25.6 0 38.4-19.2 38.4-38.4V377.6c0-25.6-19.2-38.4-38.4-38.4H160z" p-id="9815" fill="#2c2c2c"></path><path d="M512 672c-64 0-115.2-51.2-115.2-115.2S448 448 512 448s115.2 51.2 115.2 115.2S576 672 512 672z m0-160c-25.6 0-44.8 19.2-44.8 44.8 0 25.6 19.2 51.2 51.2 51.2s51.2-19.2 51.2-51.2c-6.4-25.6-32-44.8-57.6-44.8z" p-id="9816" fill="#2c2c2c"></path><path d="M512 806.4c-19.2 0-32-12.8-32-32V640c0-19.2 12.8-32 32-32s32 12.8 32 32v134.4c0 12.8-12.8 32-32 32zM300.8 332.8v-89.6C294.4 128 390.4 32 512 32s217.6 96 217.6 211.2v89.6h-64v-89.6C665.6 160 595.2 96 512 96s-153.6 70.4-153.6 147.2v89.6h-57.6z" p-id="9817"></path></svg>