<svg t="1617702015462" class="icon" viewBox="0 0 1024 1024" version="1.1" xmlns="http://www.w3.org/2000/svg" p-id="5997" width="200" height="200"><path d="M488 216h48c5.312 0 8 2.688 8 8v92.032c0 5.312-2.688 8-8 8h-48c-5.312 0-8-2.688-8-8V224c0-5.312 2.688-8 8-8z m-202.24 103.68l33.92-33.92c3.776-3.84 7.552-3.84 11.328 0L396.032 350.72c3.776 3.776 3.776 7.552 0 11.328l-33.92 33.92c-3.84 3.776-7.552 3.776-11.328 0L285.696 331.008c-3.712-3.84-3.712-7.552 0-11.328zM224 480h92.032c5.312 0 8 2.688 8 8v48c0 5.312-2.688 8-8 8H224c-5.312 0-8-2.688-8-8v-48c0-5.312 2.688-8 8-8z m484.032 0H800c5.312 0 8 2.688 8 8v48c0 5.312-2.688 8-8 8h-92.032c-5.312 0-7.936-2.688-7.936-8v-48c0-5.312 2.624-8 7.936-8zM627.968 350.72l65.024-65.024c3.84-3.712 7.552-3.712 11.328 0l33.92 33.92c3.84 3.84 3.84 7.616 0 11.392L673.28 396.032c-3.776 3.776-7.552 3.776-11.328 0l-33.92-33.92c-3.776-3.84-3.776-7.552 0-11.328z m296.832-13.12a448.064 448.064 0 1 0-638.976 561.216c5.76 3.392 12.416 5.184 19.2 5.184h413.952c6.784 0 13.44-1.792 19.2-5.248A447.808 447.808 0 0 0 960 512a445.248 445.248 0 0 0-35.2-174.4z m-91.52 362.112a374.4 374.4 0 0 1-124.928 128.32H315.648a372.032 372.032 0 1 1 517.632-128.32zM544 625.6V464a8 8 0 0 0-8-8h-48a8 8 0 0 0-8 8v161.6a64 64 0 1 0 64 0z" p-id="5998"></path></svg>