<svg t="1617702130908" class="icon" viewBox="0 0 1024 1024" version="1.1" xmlns="http://www.w3.org/2000/svg" p-id="8231" width="200" height="200"><path d="M414.398831 57.077978H125.368986c-42.430306 0-76.827164 34.396858-76.827164 76.827163v283.025574c0 42.430659 34.396858 76.827164 76.827164 76.827164h289.029845c42.430306 0 76.827164-34.396505 76.827164-76.827164V133.905141c0-42.430306-34.396858-76.827164-76.827164-76.827163z m14.328056 300.355765c0 42.430306-34.396858 76.827164-76.827517 76.827163h-164.030923c-42.430659 0-76.827164-34.396858-76.827164-76.827163V193.402467c0-42.430306 34.396505-76.827164 76.827164-76.827164h164.031276c42.430659 0 76.827517 34.396858 76.827517 76.827164v164.031276zM890.961633 57.077978h-289.029493c-42.430659 0-76.827164 34.396858-76.827164 76.827163v283.025574c0 42.430659 34.396505 76.827164 76.827164 76.827164h289.029493c42.430306 0 76.827164-34.396505 76.827164-76.827164V133.905141c0.000353-42.430306-34.396505-76.827164-76.827164-76.827163z m14.328761 300.355765c0 42.430306-34.397211 76.827164-76.827517 76.827163H664.431601c-42.430306 0-76.827164-34.396858-76.827164-76.827163V193.402467c0-42.430306 34.396858-76.827164 76.827164-76.827164h164.030923c42.430306 0 76.827517 34.396858 76.827517 76.827164v164.031276zM414.398479 520.861416H125.368986c-42.430306 0-76.827164 34.396505-76.827164 76.826811v283.025927c0 42.430306 34.396858 76.826811 76.827164 76.826811h289.029493c42.430306 0 76.827164-34.396505 76.827164-76.826811v-283.025927c0.000353-42.430306-34.396505-76.826811-76.827164-76.826811z m14.328408 300.355413c0 42.430306-34.396858 76.827164-76.827164 76.827163H187.868447c-42.430306 0-76.827164-34.396858-76.827164-76.827163V657.185553c0-42.430306 34.396858-76.827164 76.827164-76.827164h164.031276c42.430306 0 76.827164 34.396858 76.827164 76.827164v164.031276zM894.349354 520.861416h-289.029492c-42.430306 0-76.827517 34.396505-76.827517 76.826811v283.025927c0 42.430306 34.397211 76.826811 76.827517 76.826811h289.029492c42.430306 0 76.827164-34.396505 76.827164-76.826811v-283.025927c0-42.430306-34.396858-76.826811-76.827164-76.826811z m14.328056 300.355413c0 42.430306-34.396505 76.827164-76.827164 76.827163h-164.031276c-42.430306 0-76.827164-34.396858-76.827164-76.827163V657.185553c0-42.430306 34.396858-76.827164 76.827164-76.827164h164.031276c42.430659 0 76.827164 34.396858 76.827164 76.827164v164.031276z" p-id="8232"></path></svg>