<svg
  t="1624665925604"
  class="icon"
  viewBox="0 0 1024 1024"
  version="1.1"
  xmlns="http://www.w3.org/2000/svg"
  p-id="2431"
  width="20"
  height="20"
  fill="currentColor"
>
  <path
    d="M440.996749 710.23514H83.663093c-8.305522 0-15.068955-6.767699-15.068955-15.073221V113.796737c0-8.303389 6.765566-15.068955 15.068955-15.068955h856.639687c8.307654 0 15.068955 6.765566 15.068955 15.068955v127.325736c25.08933 2.962601 48.598179 11.18494 68.592006 24.701142V113.796737c0-46.134677-37.543346-83.663093-83.663093-83.663093H83.663093C37.543346 30.133644 0 67.659927 0 113.796737v581.363049c0 46.13681 37.543346 83.667359 83.663093 83.667359h287.131309v112.150137h-45.279383c-28.401727 0-51.445604 23.026813-51.445604 51.445603 0 28.41879 23.043877 51.445604 51.445604 51.445604h144.418815c-18.050752-25.385803-28.934953-56.201976-28.934953-89.660814V710.23514z"
    p-id="2432"
  ></path>
  <path
    d="M728.895902 941.98564v-74.101292h-150.715143V394.584794c0-9.984116 8.105029-18.106208 18.084879-18.106207h341.023352c9.97985 0 18.082746 8.122092 18.082745 18.106207v146.479199h25.692942c15.706693 0 30.242422 4.536683 42.899064 11.937855v-158.417054c0-47.813271-38.882809-86.698213-86.676884-86.698213H596.265638c-47.791942 0-86.676884 38.884942-86.676884 86.698213v509.620748c0 47.813271 38.882809 86.69608 86.676884 86.69608h148.104471c-9.444491-13.563126-15.474206-32.462773-15.474207-48.915982z"
    p-id="2433"
  ></path>
  <path
    d="M981.064677 583.93533h-166.357849c-23.683747 0-42.939589 19.275038-42.939589 42.952386v315.097924c0 23.677349 19.255842 42.937456 42.939589 42.937457h166.357849c23.679481 0 42.935323-19.260108 42.935323-42.937457V626.885584c0-23.677349-19.257975-42.950254-42.935323-42.950254z m-157.853967 51.443471h149.343686v272.378023h-149.343686V635.378801z m74.692105 328.678112c-4.724379 0-8.943259-1.91108-12.157543-4.856618-3.653662-3.316663-5.997721-7.974922-5.997721-13.283716 0-10.011843 8.107162-18.119005 18.155264-18.119005 9.97985 0 18.084879 8.107162 18.084879 18.119005 0 5.308794-2.346193 9.96492-5.961462 13.283716-3.21855 2.947671-7.43743 4.856619-12.123417 4.856618z"
    p-id="2434"
  ></path>
</svg>