<svg
  t="1617717655750"
  class="icon"
  viewBox="0 0 1024 1024"
  version="1.1"
  xmlns="http://www.w3.org/2000/svg"
  p-id="10623"
  width="20"
  height="20"
  fill="currentColor"
>
  <path
    d="M896.6 112H127.4c-8.5 0-15.4 6.9-15.4 15.4v769.2c0 8.5 6.9 15.4 15.4 15.4h769.2c8.5 0 15.4-6.9 15.4-15.4V127.4c0-8.5-6.9-15.4-15.4-15.4zM832 824c0 4.4-3.6 8-8 8H200c-4.4 0-8-3.6-8-8V200c0-4.4 3.6-8 8-8h624c4.4 0 8 3.6 8 8v624z"
    p-id="10624"
  ></path>
  <path
    d="M545.8 352h-67.7c-3.4 0-6.2 2.5-6.2 5.6v388.8c0 3.1 2.8 5.6 6.2 5.6h67.7c3.4 0 6.2-2.5 6.2-5.6V357.6c0-3.1-2.8-5.6-6.2-5.6zM345.8 272h-67.7c-3.4 0-6.2 3-6.2 6.7v466.6c0 3.7 2.8 6.7 6.2 6.7h67.7c3.4 0 6.2-3 6.2-6.7V278.7c0-3.7-2.8-6.7-6.2-6.7zM745.8 432h-67.7c-3.4 0-6.2 2-6.2 4.5v311c0 2.5 2.8 4.5 6.2 4.5h67.7c3.4 0 6.2-2 6.2-4.5v-311c0-2.5-2.8-4.5-6.2-4.5z"
    p-id="10625"
  ></path>
</svg>