<svg
  t="1617702613475"
  class="icon"
  viewBox="0 0 1024 1024"
  version="1.1"
  xmlns="http://www.w3.org/2000/svg"
  p-id="9042"
  width="20"
  height="20"
  fill="currentColor"
>
  <path
    d="M924.65 747.054C948.898 723.426 964 690.452 964 654c0-71.682-58.318-130-130-130s-130 58.318-130 130c0 36.452 15.102 69.426 39.35 93.054a191.266 191.266 0 0 0-55.264 45.396L542 675.582V500h130c16.568 0 30-13.432 30-30v-80c0-71.962-40.214-134.706-99.35-166.946C626.898 199.426 642 166.452 642 130c0-71.682-58.318-130-130-130s-130 58.318-130 130c0 36.452 15.102 69.426 39.35 93.054C362.214 255.294 322 318.038 322 390v80c0 16.568 13.432 30 30 30h130v175.582l-146.086 116.868a191.356 191.356 0 0 0-55.264-45.396C304.898 723.426 320 690.452 320 654c0-71.682-58.318-130-130-130s-130 58.318-130 130c0 36.452 15.102 69.426 39.35 93.054C40.214 779.294 0 842.038 0 914v80c0 16.568 13.432 30 30 30h320c16.568 0 30-13.432 30-30v-80c0-24.504-4.664-47.938-13.148-69.464L512 728.416l145.148 116.12C648.664 866.062 644 889.496 644 914v80c0 16.568 13.432 30 30 30h320c16.568 0 30-13.432 30-30v-80c0-71.962-40.214-134.706-99.35-166.946zM442 130c0-38.598 31.402-70 70-70s70 31.402 70 70-31.402 70-70 70-70-31.402-70-70z m-60 260c0-71.682 58.318-130 130-130s130 58.318 130 130v50H382zM120 654c0-38.598 31.402-70 70-70s70 31.402 70 70-31.402 70-70 70-70-31.402-70-70z m200 310H60v-50c0-71.682 58.318-130 130-130s130 58.318 130 130z m444-310c0-38.598 31.402-70 70-70s70 31.402 70 70-31.402 70-70 70-70-31.402-70-70z m200 310H704v-50c0-71.682 58.318-130 130-130s130 58.318 130 130z"
    p-id="9043"
  ></path>
</svg>