<svg
  t="1624666657879"
  class="icon"
  viewBox="0 0 1024 1024"
  version="1.1"
  xmlns="http://www.w3.org/2000/svg"
  p-id="4177"
  width="20"
  height="20"
  fill="currentColor"
>
  <path
    d="M449.792 475.392H120.32c-15.616 0-28.16-12.544-28.16-28.16V117.76c0-15.616 12.544-28.16 28.16-28.16h329.472c15.616 0 28.16 12.544 28.16 28.16v329.472c0 15.616-12.544 28.16-28.16 28.16zM148.48 419.072h273.152V145.92H148.48v273.152zM903.68 475.392H574.208c-15.616 0-28.16-12.544-28.16-28.16V117.76c0-15.616 12.544-28.16 28.16-28.16H903.68c15.616 0 28.16 12.544 28.16 28.16v329.472c0 15.616-12.544 28.16-28.16 28.16z m-301.312-56.32H875.52V145.92H602.368v273.152zM449.792 934.4H120.32c-15.616 0-28.16-12.544-28.16-28.16V576.768c0-15.616 12.544-28.16 28.16-28.16h329.472c15.616 0 28.16 12.544 28.16 28.16V906.24c0 15.616-12.544 28.16-28.16 28.16zM148.48 878.08h273.152V604.928H148.48V878.08zM903.424 934.4H573.952c-15.616 0-28.16-12.544-28.16-28.16V576.768c0-15.616 12.544-28.16 28.16-28.16h329.472c15.616 0 28.16 12.544 28.16 28.16V906.24c0 15.616-12.544 28.16-28.16 28.16z m-301.312-56.32h273.152V604.928H602.112V878.08z"
    p-id="4178"
  ></path>
</svg>