<svg
  t="1617718485860"
  class="icon"
  viewBox="0 0 1024 1024"
  version="1.1"
  xmlns="http://www.w3.org/2000/svg"
  p-id="11366"
  width="20"
  height="20"
  fill="currentColor"
>
  <path
    d="M832.2 264.6H192.3c-35.2 0-64-28.8-64-64s28.8-64 64-64h639.8c35.2 0 64 28.8 64 64 0.1 35.2-28.7 64-63.9 64zM832.2 577.9H196.1c-35.2 0-64-28.8-64-64s28.8-64 64-64h636.1c35.2 0 64 28.8 64 64s-28.8 64-64 64zM832.2 896.9H192.3c-35.2 0-64-28.8-64-64s28.8-64 64-64h639.8c35.2 0 64 28.8 64 64 0.1 35.2-28.7 64-63.9 64z"
    p-id="11367"
  ></path>
</svg>