<svg
  t="1623318086289"
  class="icon"
  viewBox="0 0 1024 1024"
  version="1.1"
  xmlns="http://www.w3.org/2000/svg"
  p-id="2485"
  width="20"
  height="20"
  fill="currentColor"
>
  <path
    d="M318.464 442.368c87.04 0 157.696-70.656 157.696-157.696S405.504 127.488 318.464 127.488 161.28 198.144 161.28 285.184s70.656 157.184 157.184 157.184z m0-253.44c52.736 0 96.256 43.008 96.256 96.256s-43.008 96.256-96.256 96.256S222.72 337.92 222.72 285.184s43.008-96.256 95.744-96.256zM435.2 516.608H219.136C115.2 516.608 30.72 601.088 30.72 705.024v24.576C30.72 793.088 82.432 844.8 145.92 844.8h358.4c63.488 0 115.2-51.712 115.2-115.2V701.44c0.512-101.888-82.432-184.832-184.32-184.832z m123.392 212.48c0 29.696-24.064 53.76-53.76 53.76h-358.4c-29.696 0-53.76-24.064-53.76-53.76v-24.576c0-69.632 56.832-126.976 126.976-126.976H435.2c68.096 0 123.392 55.296 123.392 123.392v28.16zM955.904 215.04h-219.648c-20.992 0-37.888 16.896-37.888 37.888v1.536c0 20.992 16.896 37.888 37.888 37.888h219.648c20.992 0 37.888-16.896 37.888-37.888v-1.536c0-20.992-16.896-37.888-37.888-37.888zM955.904 445.952h-219.648c-20.992 0-37.888 16.896-37.888 37.888v1.536c0 20.992 16.896 37.888 37.888 37.888h219.648c20.992 0 37.888-16.896 37.888-37.888v-1.536c0-20.992-16.896-37.888-37.888-37.888zM955.904 677.376h-219.648c-20.992 0-37.888 16.896-37.888 37.888v1.536c0 20.992 16.896 37.888 37.888 37.888h219.648c20.992 0 37.888-16.896 37.888-37.888v-1.536c0-20.992-16.896-37.888-37.888-37.888z"
    p-id="2486"
  ></path>
</svg>