<svg
  t="1624005653527"
  class="icon"
  viewBox="0 0 1141 1024"
  version="1.1"
  xmlns="http://www.w3.org/2000/svg"
  p-id="2421"
  width="20"
  height="20"
  fill="currentColor"
>
  <path
    d="M1128.17799 950.705035a30.883025 30.883025 0 0 0-22.288557-9.170149h-36.80796v-507.822488c0-53.431403-47.312876-98.706468-103.281354-98.706468H795.714229v-234.65393c0-47.307781-37.057592-87.997771-84.370468-96.913194a104.111761 104.111761 0 0 0-18.910885-1.783085H187.595781c-6.368159 0-12.736318 0.636816-18.91598 1.783085-47.312876 8.915423-84.370468 49.605413-84.370468 96.918289v840.989293H40.435264a35.661692 35.661692 0 0 0-15.920398 3.820896c-13.627861 6.622886-24.326368 20.505473-24.326368 34.831283 0 19.741294 19.552796 38.652179 40.501492 38.652179h1058.642786c20.439244 0 40.430169-19.104478 40.430169-38.397452a43.812935 43.812935 0 0 0-11.584955-29.609394v0.061135z m-332.209035-147.919602V412.376517h170.147025c7.004975 0 15.920398 7.957652 15.920398 14.325811v507.827582H795.968955v-131.744477z m-80.99789-702.433433v840.994388H171.863881V100.357095c0-5.924935 8.217473-14.330905 15.920398-14.330906h512.667383c6.816478 0 14.585632 7.514428 14.585632 14.330906h-0.066229z"
    p-id="2422"
  ></path>
  <path
    d="M567.112597 639.322428H321.062209c-20.439244 0-40.501493 19.104478-40.501493 38.652179 0 22.731781 13.882587 45.723383 40.501493 45.723383h245.413572c20.439244 0 40.435264-19.104478 40.435264-38.463682a51.576995 51.576995 0 0 0-14.962627-34.067104 35.789055 35.789055 0 0 0-24.835821-11.844776z m0-379.516816H321.062209c-20.439244 0-40.501493 19.104478-40.501493 38.58595 0 19.807522 19.61393 38.718408 40.501493 38.718408h245.413572c20.439244 0 40.435264-19.104478 40.435264-38.463681a37.888 37.888 0 0 0-11.335324-25.915861 41.133214 41.133214 0 0 0-28.463124-12.991045v0.066229z m0 209.624517H321.062209c-20.439244 0-40.501493 19.104478-40.501493 38.652179 0 19.807522 19.61393 38.652179 40.501493 38.65218h245.413572c20.439244 0 40.435264-19.104478 40.435264-38.397453a37.888 37.888 0 0 0-11.335324-25.915861 40.180537 40.180537 0 0 0-28.463124-12.991045z"
    p-id="2423"
  ></path>
</svg>